<svg id="visual" viewBox="0 0 900 600" width="900" height="600" xmlns="http://www.w3.org/2000/svg" xmlns:xlink="http://www.w3.org/1999/xlink" version="1.1"><rect x="0" y="0" width="900" height="600" fill="#001220"></rect><path d="M0 371L21.5 371.2C43 371.3 86 371.7 128.8 375.5C171.7 379.3 214.3 386.7 257.2 397.7C300 408.7 343 423.3 385.8 423.8C428.7 424.3 471.3 410.7 514.2 408.8C557 407 600 417 642.8 425C685.7 433 728.3 439 771.2 438.7C814 438.3 857 431.7 878.5 428.3L900 425L900 601L878.5 601C857 601 814 601 771.2 601C728.3 601 685.7 601 642.8 601C600 601 557 601 514.2 601C471.3 601 428.7 601 385.8 601C343 601 300 601 257.2 601C214.3 601 171.7 601 128.8 601C86 601 43 601 21.5 601L0 601Z" fill="#fa7268"></path><path d="M0 450L21.5 446C43 442 86 434 128.8 435.2C171.7 436.3 214.3 446.7 257.2 454.8C300 463 343 469 385.8 472.2C428.7 475.3 471.3 475.7 514.2 468.3C557 461 600 446 642.8 446.2C685.7 446.3 728.3 461.7 771.2 467.3C814 473 857 469 878.5 467L900 465L900 601L878.5 601C857 601 814 601 771.2 601C728.3 601 685.7 601 642.8 601C600 601 557 601 514.2 601C471.3 601 428.7 601 385.8 601C343 601 300 601 257.2 601C214.3 601 171.7 601 128.8 601C86 601 43 601 21.5 601L0 601Z" fill="#ef5f67"></path><path d="M0 455L21.5 456C43 457 86 459 128.8 467.8C171.7 476.7 214.3 492.3 257.2 498C300 503.7 343 499.3 385.8 488C428.7 476.7 471.3 458.3 514.2 449.7C557 441 600 442 642.8 451.5C685.7 461 728.3 479 771.2 480.5C814 482 857 467 878.5 459.5L900 452L900 601L878.5 601C857 601 814 601 771.2 601C728.3 601 685.7 601 642.8 601C600 601 557 601 514.2 601C471.3 601 428.7 601 385.8 601C343 601 300 601 257.2 601C214.3 601 171.7 601 128.8 601C86 601 43 601 21.5 601L0 601Z" fill="#e34c67"></path><path d="M0 486L21.5 495C43 504 86 522 128.8 525C171.7 528 214.3 516 257.2 511.7C300 507.3 343 510.7 385.8 511.3C428.7 512 471.3 510 514.2 507.5C557 505 600 502 642.8 499.7C685.7 497.3 728.3 495.7 771.2 502C814 508.3 857 522.7 878.5 529.8L900 537L900 601L878.5 601C857 601 814 601 771.2 601C728.3 601 685.7 601 642.8 601C600 601 557 601 514.2 601C471.3 601 428.7 601 385.8 601C343 601 300 601 257.2 601C214.3 601 171.7 601 128.8 601C86 601 43 601 21.5 601L0 601Z" fill="#d53867"></path><path d="M0 529L21.5 532C43 535 86 541 128.8 547.8C171.7 554.7 214.3 562.3 257.2 558.5C300 554.7 343 539.3 385.8 532.2C428.7 525 471.3 526 514.2 527.2C557 528.3 600 529.7 642.8 529.5C685.7 529.3 728.3 527.7 771.2 530.8C814 534 857 542 878.5 546L900 550L900 601L878.5 601C857 601 814 601 771.2 601C728.3 601 685.7 601 642.8 601C600 601 557 601 514.2 601C471.3 601 428.7 601 385.8 601C343 601 300 601 257.2 601C214.3 601 171.7 601 128.8 601C86 601 43 601 21.5 601L0 601Z" fill="#c62368"></path></svg>